<svg width="500" height="500" viewBox="0 0 500 500" fill="none" xmlns="http://www.w3.org/2000/svg">
<g clip-path="url(#clip0_1_2)">
<g filter="url(#filter0_d_1_2)">
<path d="M178.5 365.5C187.915 377.5 201 377.5 201 377.5C212.857 379.367 233.5 382.277 233.5 382.277M178.5 365.5C106.704 314.82 84.4009 214.731 98.5 131.5C101.801 112.013 119.781 60.8439 142.5 70C153.63 74.4857 156.845 85.3251 166.253 92.5M178.5 365.5C149.005 327.909 132.235 302.845 134.5 253M166.253 92.5C166.253 92.5 152.381 126.557 145.697 153.792M166.253 92.5C172.783 81.268 188.377 73.2211 201 70C201 70 213 79.2383 213 87.5M213 87.5C220.269 82.6542 226.202 81.0132 233.5 87.5M213 87.5C179.509 93.8206 177.21 152.88 169 180M233.5 87.5C246.247 96.6791 253.878 110.123 260.5 124C263.795 110.84 269.974 101.053 280.5 92.5M233.5 87.5C251.32 69.3732 268.666 77.7078 280.5 92.5M280.5 92.5C302.407 70.5926 341.204 122.83 346.5 141.5M346.5 141.5C366.023 127.555 393.436 106.178 400.5 141.5C419.691 237.456 382.693 368.731 270 380M346.5 141.5C363.586 182.94 358.451 225.746 351.5 269M270 380C258.676 383.603 233.5 382.277 233.5 382.277M270 380C318.023 372.128 349.204 313.137 351.5 269M233.5 382.277C233.5 382.277 205.038 407.052 205.038 418.628L212.538 497.675M134.5 253C136.184 234.702 137.717 204.674 151 190C155.715 184.791 162.266 181.496 169 180M134.5 253C136.261 233.194 138.364 213.497 142.5 194M351.5 269C351.623 246.009 346.94 221.879 335 202C323.302 182.524 299.139 149.336 274.5 144.5C268.176 143.259 264.669 145.775 259 146.5C253.675 147.181 247.701 141.218 241 141.5C213.761 142.644 187.383 155.158 173.5 179L169 180M145.697 153.792C142.475 166.921 144.348 180.609 142.5 194M145.697 153.792C143.158 167.07 145.038 180.722 142.5 194" stroke="#FFFEFE" stroke-width="16" stroke-linejoin="round" shape-rendering="crispEdges"/>
</g>
</g>
<defs>
<filter id="filter0_d_1_2" x="82.5056" y="60.9054" width="334.817" height="445.525" filterUnits="userSpaceOnUse" color-interpolation-filters="sRGB">
<feFlood flood-opacity="0" result="BackgroundImageFix"/>
<feColorMatrix in="SourceAlpha" type="matrix" values="0 0 0 0 0 0 0 0 0 0 0 0 0 0 0 0 0 0 127 0" result="hardAlpha"/>
<feOffset dy="4"/>
<feGaussianBlur stdDeviation="2"/>
<feComposite in2="hardAlpha" operator="out"/>
<feColorMatrix type="matrix" values="0 0 0 0 0 0 0 0 0 0 0 0 0 0 0 0 0 0 0.25 0"/>
<feBlend mode="normal" in2="BackgroundImageFix" result="effect1_dropShadow_1_2"/>
<feBlend mode="normal" in="SourceGraphic" in2="effect1_dropShadow_1_2" result="shape"/>
</filter>
<clipPath id="clip0_1_2">
<rect width="500" height="500" fill="white"/>
</clipPath>
</defs>
</svg>
